<svg width="25" height="18" viewBox="0 0 25 18" fill="none" xmlns="http://www.w3.org/2000/svg">
<path d="M23.04 3.42C22.9151 2.95228 22.6698 2.52547 22.3285 2.1821C21.9872 1.83873 21.5619 1.59079 21.095 1.463C19.38 1 12.5 1 12.5 1C12.5 1 5.62 1 3.905 1.463C3.43806 1.59079 3.01276 1.83873 2.6715 2.1821C2.33023 2.52547 2.08492 2.95228 1.96 3.42C1.5 5.148 1.5 8.75 1.5 8.75C1.5 8.75 1.5 12.352 1.96 14.08C2.08476 14.5479 2.33001 14.9749 2.67129 15.3185C3.01256 15.662 3.43794 15.9101 3.905 16.038C5.621 16.5 12.5 16.5 12.5 16.5C12.5 16.5 19.38 16.5 21.095 16.038C21.5621 15.9101 21.9874 15.662 22.3287 15.3185C22.67 14.9749 22.9152 14.5479 23.04 14.08C23.5 12.354 23.5 8.75 23.5 8.75C23.5 8.75 23.5 5.148 23.04 3.42ZM10.25 12.021V5.48L16 8.751L10.25 12.021Z" stroke="#ddd" stroke-width="1.5" stroke-miterlimit="10" stroke-linejoin="round"/>
</svg>
